<svg xmlns="http://www.w3.org/2000/svg" viewBox="0 0 500 500"><g id="freepik--Plant--inject-5"><path d="M451.19,385.1c-11,14.93-22.51,32.25-25.31,51a.25.25,0,0,0,.49.09,111,111,0,0,1,4.87-15c7.24-2,14.35-3.63,18.16-10.82,3.88-7.39,3.39-17,2.65-25.08C452,384.84,451.41,384.82,451.19,385.1Z" style="fill:#2667FF"></path><path d="M431.35,421c4.95-11.11,11.3-22.26,19.38-31.39.06-.07.14,0,.09.08-5.29,6.51-9.31,13.59-13.23,20.8,3.65-3.7,7.65-7,11.1-10.95a.08.08,0,0,1,.11.11c-3.43,4.12-7.18,8.6-11.65,11.64q-1.8,3.33-3.63,6.65l.92-.47c.05,0,.1.06,0,.09-.34.17-.67.35-1,.5-.58,1.05-1.15,2.1-1.75,3.15C431.57,421.47,431.24,421.27,431.35,421Z" style="fill:#263238"></path><path d="M435,417.16a66.61,66.61,0,0,0,8.46-5.65c.07-.06.18,0,.1.1a44.44,44.44,0,0,1-8.44,5.75C435,417.43,434.9,417.23,435,417.16Z" style="fill:#263238"></path><path d="M424.61,433.28a.2.2,0,0,0,.4,0c.06-6.16,0-12.35.1-18.54,1.58-3.19,5-5,7.32-7.51a33,33,0,0,0,4.4-6.12,44,44,0,0,0,5.1-17c.65-6.59-1.85-28.34-4.63-27.59-1.44.39-6.11,11.17-7.34,14.73a101.87,101.87,0,0,0-4.39,18.06C423.32,403.79,423.5,418.68,424.61,433.28Z" style="fill:#2667FF"></path><path d="M424.56,406.69l0,0c.34-7.8,2.1-15.67,3.74-23.24,1.77-8.14,3.84-15.82,8-23.08a.12.12,0,0,1,.21.12,85.74,85.74,0,0,0-6.45,17.72c.28-.44.62-.86.91-1.27.12-.16.39,0,.27.16a11.45,11.45,0,0,1-1.31,1.85l-.05,0c-1.44,5.82-2.48,11.78-3.37,17.72.07-.07.13-.15.2-.23s.12,0,.09.07-.23.4-.35.59c-.45,3-.86,6-1.28,9,5.37-4.59,10-10,12.54-16.66,0,0,.07,0,.05,0-2.53,6.92-6.53,13.06-12.68,17.26l-.33,2.41c0,.16-.29.12-.29,0,0-.71,0-1.43.06-2.14A.17.17,0,0,1,424.56,406.69Z" style="fill:#263238"></path><path d="M427.09,395.39A123.24,123.24,0,0,0,438,376.55c0-.07.17,0,.14.06-2.53,6.72-6.08,13.54-10.87,18.94A.13.13,0,0,1,427.09,395.39Z" style="fill:#263238"></path><path d="M432.55,375c1.7-3,3.49-5.94,5.09-9,0-.09.16,0,.13.07a47,47,0,0,1-5,9.08C432.7,375.35,432.45,375.21,432.55,375Z" style="fill:#263238"></path><path d="M431.88,376.35s0,0,0,0A0,0,0,0,1,431.88,376.35Z" style="fill:#263238"></path><path d="M420.44,415.46A63.5,63.5,0,0,1,419,427.6c.06.44.12.87.19,1.33a58.23,58.23,0,0,0,2.17-13.54.42.42,0,0,0,0-.42h0A90.35,90.35,0,0,0,420,396.62c-1.91-11.32-6.08-22.19-14-30.68a.56.56,0,0,0-.87.18c-3.19,8.1-2.08,17.77.64,25.86a46.83,46.83,0,0,0,6.26,12.28C414.78,408.07,418.24,411.3,420.44,415.46Z" style="fill:#2667FF"></path><path d="M407,369.73c7.49,12.15,12.7,26.56,13.34,40.91,0,.25-.42.32-.46.06-.17-1.29-.37-2.57-.58-3.84h0c-3.1-3-6.28-6.09-8.49-9.8,0-.06.05-.14.1-.08a104.74,104.74,0,0,0,8.25,9c-.53-3.17-1.17-6.3-1.92-9.37l-.59-.7c-.13-.15.08-.37.22-.22l.18.2a109.9,109.9,0,0,0-3.91-12.43c-1.91-2.27-4-4.24-5.43-7,0-.06.06-.11.1-.05,1.12,1.56,2.2,3.14,3.46,4.59.51.58,1.06,1.12,1.58,1.69a94.53,94.53,0,0,0-6.13-12.78A.17.17,0,0,1,407,369.73Z" style="fill:#263238"></path><path d="M408.49,384.72c2.42,3.26,5.17,6.36,7.42,9.73.07.1-.07.19-.15.12a49.59,49.59,0,0,1-7.44-9.76C408.26,384.71,408.42,384.62,408.49,384.72Z" style="fill:#263238"></path><path d="M416.25,395.2l.11.11c.07.07,0,.18-.12.11l-.1-.11A.08.08,0,0,1,416.25,395.2Z" style="fill:#263238"></path><path d="M395.25,393.09a37.35,37.35,0,0,0,7.89,18.53,19.77,19.77,0,0,0,6.41,5c2.77,1.37,5.68,2.95,8.55,4.08a56.43,56.43,0,0,1,3,10.75l.27-.95c-1.84-15.83-12.08-29.35-25.18-38A.63.63,0,0,0,395.25,393.09Z" style="fill:#2667FF"></path><path d="M399.77,397.76c-.09-.08,0-.24.13-.17a53.46,53.46,0,0,1,16.69,20.57c.1.22-.2.41-.32.19-.61-1.07-1.23-2.1-1.86-3.12h0c-3-.56-5.82-2.67-8-4.67-.06-.05,0-.14.09-.08a18.37,18.37,0,0,0,3.78,2.65c1.22.62,2.53,1,3.8,1.51-1.11-1.76-2.26-3.45-3.47-5.08a34.85,34.85,0,0,1-9-5.06c-.09-.06,0-.2.08-.14a88.23,88.23,0,0,0,8.35,4.46,74.74,74.74,0,0,0-5.89-6.87c-1-.54-2.05-1.08-3-1.65a.08.08,0,0,1,.07-.15,10.84,10.84,0,0,1,2.32,1.14C402.29,400.09,401.08,398.91,399.77,397.76Z" style="fill:#263238"></path><path d="M400.05,403.23a3.52,3.52,0,0,1,.5.36c.05,0,0,.1-.06.08a4,4,0,0,1-.53-.3A.08.08,0,0,1,400.05,403.23Z" style="fill:#263238"></path><polygon points="441.85 465.72 405.95 465.72 408.85 433.04 409.49 425.83 438.31 425.83 438.95 433.04 441.85 465.72" style="fill:#455a64"></polygon><polygon points="438.95 433.04 408.85 433.04 409.49 425.83 438.31 425.83 438.95 433.04" style="fill:#263238"></polygon><rect x="407.77" y="420.79" width="32.26" height="7.13" style="fill:#455a64"></rect></g><g id="freepik--Floor--inject-5"><polygon points="47.44 465.72 98.08 465.48 148.72 465.39 250 465.22 351.28 465.39 401.92 465.48 452.56 465.72 401.92 465.97 351.28 466.06 250 466.22 148.72 466.06 98.08 465.97 47.44 465.72" style="fill:#263238"></polygon></g><g id="freepik--Screen--inject-5"><rect x="65.86" y="69.92" width="368.27" height="232.98" style="fill:#fff"></rect><path d="M434.14,302.9l-368.28.16h-.15v-.16l-.09-233v-.25h.24l368.28.15h.09v.1Zm0,0-.1-233,.1.1-368.28.15.25-.25L66,302.9l-.16-.15Z" style="fill:#263238"></path><rect x="65.86" y="69.92" width="368.27" height="8.97" style="fill:#263238"></rect><path d="M74.51,74.4a1.81,1.81,0,1,1-1.81-1.8A1.81,1.81,0,0,1,74.51,74.4Z" style="fill:#2667FF"></path><path d="M81.89,74.4a1.81,1.81,0,1,1-1.81-1.8A1.81,1.81,0,0,1,81.89,74.4Z" style="fill:#fff"></path><path d="M89.26,74.4a1.81,1.81,0,1,1-1.81-1.8A1.81,1.81,0,0,1,89.26,74.4Z" style="fill:#455a64"></path><path d="M102.46,175.2c8.55-.16,17.11-.24,25.66-.3l25.66-.1,25.66.1,12.83.11,12.83.19-12.83.2-12.83.11-25.66.09-25.66-.09C119.57,175.44,111,175.37,102.46,175.2Z" style="fill:#dbdbdb"></path><path d="M102.46,183.35c8.55-.17,17.11-.25,25.66-.31l25.66-.09,25.66.09,12.83.11,12.83.2-12.83.19-12.83.11-25.66.09-25.66-.09C119.57,183.59,111,183.51,102.46,183.35Z" style="fill:#dbdbdb"></path><path d="M102.46,191.49c8.55-.17,17.11-.24,25.66-.31l25.66-.09,25.66.09,12.83.11,12.83.2-12.83.2-12.83.11-25.66.09-25.66-.09C119.57,191.73,111,191.65,102.46,191.49Z" style="fill:#dbdbdb"></path><path d="M102.46,207.78c8.55-.17,17.11-.25,25.66-.31l25.66-.09,25.66.09,12.83.11,12.83.2-12.83.19-12.83.11-25.66.09-25.66-.09C119.57,208,111,207.94,102.46,207.78Z" style="fill:#dbdbdb"></path><path d="M102.46,215.92c8.55-.17,17.11-.24,25.66-.31l25.66-.09,25.66.09,12.83.11,12.83.2-12.83.19-12.83.12-25.66.09-25.66-.1C119.57,216.16,111,216.08,102.46,215.92Z" style="fill:#dbdbdb"></path><path d="M102.46,224.06c5.2-.16,10.41-.24,15.61-.3s10.42-.06,15.62-.1,10.41,0,15.62.1l7.8.11c2.61.06,5.21.1,7.81.19-2.6.09-5.2.13-7.81.2l-7.8.11c-5.21.06-10.41.06-15.62.09s-10.41,0-15.62-.09S107.66,224.23,102.46,224.06Z" style="fill:#dbdbdb"></path><rect x="102.46" y="240.83" width="47.22" height="12.99" style="fill:#2667FF"></rect><path d="M108.53,249.32v-4h.39V249h2.3v.35Z" style="fill:#fff"></path><path d="M114.47,249v.35h-2.68v-4h2.63v.35h-2.23v1.43h1.94v.33h-1.94V249Z" style="fill:#fff"></path><path d="M116.44,245.34h.33l1.65,4H118l-.52-1.25h-1.78l-.51,1.25h-.43Zm1,2.42-.8-2-.81,2Z" style="fill:#fff"></path><path d="M119,249.32v-4h1.69a.93.93,0,0,1,.47.11,1.29,1.29,0,0,1,.62.68,1.44,1.44,0,0,1,.08.46,1.4,1.4,0,0,1-.06.41,1.21,1.21,0,0,1-.18.36,1,1,0,0,1-.28.27,1,1,0,0,1-.36.15l1,1.54h-.44l-.94-1.47h-1.17v1.47Zm.4-1.82h1.3a.64.64,0,0,0,.31-.07.85.85,0,0,0,.25-.21,1,1,0,0,0,.15-.29,1,1,0,0,0,.06-.34,1,1,0,0,0-.06-.35,1.08,1.08,0,0,0-.18-.29.83.83,0,0,0-.26-.19.64.64,0,0,0-.31-.07h-1.26Z" style="fill:#fff"></path><path d="M123.05,246.07v3.25h-.4v-4H123l2.63,3.31v-3.31H126v4h-.34Z" style="fill:#fff"></path><path d="M131.93,249.32v-3.27l-1.45,2.53h-.23l-1.45-2.53v3.27h-.39v-4h.4l1.55,2.72,1.57-2.72h.4v4Z" style="fill:#fff"></path><path d="M134.93,249.34a1.6,1.6,0,0,1-.76-.17,1.75,1.75,0,0,1-.59-.45,1.94,1.94,0,0,1-.39-.65,2.1,2.1,0,0,1-.13-.74,2,2,0,0,1,.54-1.41,1.82,1.82,0,0,1,.59-.44,1.58,1.58,0,0,1,.74-.17,1.61,1.61,0,0,1,.76.18,1.78,1.78,0,0,1,.59.46,2.1,2.1,0,0,1,.38.65,2,2,0,0,1,.13.73,2.23,2.23,0,0,1-.14.77,2.44,2.44,0,0,1-.39.64,2.12,2.12,0,0,1-.59.44A1.7,1.7,0,0,1,134.93,249.34Zm-1.48-2a1.88,1.88,0,0,0,.11.62,1.62,1.62,0,0,0,.3.53,1.4,1.4,0,0,0,.47.37,1.21,1.21,0,0,0,.6.14,1.4,1.4,0,0,0,.61-.14,1.57,1.57,0,0,0,.46-.39,1.62,1.62,0,0,0,.3-.53,2.09,2.09,0,0,0,.1-.6,1.9,1.9,0,0,0-.11-.63,1.57,1.57,0,0,0-.31-.53,1.47,1.47,0,0,0-.46-.36,1.2,1.2,0,0,0-.59-.14,1.41,1.41,0,0,0-.62.14,1.59,1.59,0,0,0-.75.91A1.83,1.83,0,0,0,133.45,247.33Z" style="fill:#fff"></path><path d="M137.53,249.32v-4h1.68a1,1,0,0,1,.48.11,1.44,1.44,0,0,1,.37.28,1.47,1.47,0,0,1,.24.4,1.22,1.22,0,0,1,.09.46,1.14,1.14,0,0,1-.07.41,1.2,1.2,0,0,1-.17.36,1,1,0,0,1-.28.27.93.93,0,0,1-.37.15l1,1.54H140l-.94-1.47h-1.18v1.47Zm.39-1.82h1.3a.66.66,0,0,0,.32-.07.7.7,0,0,0,.24-.21,1,1,0,0,0,.16-.29,1,1,0,0,0,.06-.34.84.84,0,0,0-.07-.35,1.05,1.05,0,0,0-.17-.29.83.83,0,0,0-.26-.19.67.67,0,0,0-.31-.07h-1.27Z" style="fill:#fff"></path><path d="M143.86,249v.35h-2.67v-4h2.62v.35h-2.23v1.43h1.95v.33h-1.95V249Z" style="fill:#fff"></path><path d="M110,154.52v-15a1.42,1.42,0,0,1,2.83,0v6.11h6.61v-6.11a1.39,1.39,0,0,1,1.4-1.41,1.4,1.4,0,0,1,1.42,1.41v15a1.4,1.4,0,0,1-1.42,1.41,1.39,1.39,0,0,1-1.4-1.41v-6.11h-6.61v6.11a1.42,1.42,0,0,1-2.83,0Z" style="fill:#263238"></path><path d="M126.14,154.52v-15a1.39,1.39,0,0,1,1.4-1.41h8.34a1.42,1.42,0,0,1,0,2.83H129v4.67h5.94a1.42,1.42,0,0,1,0,2.83H129v4.69h6.91a1.42,1.42,0,0,1,0,2.83h-8.26c-.05,0-.05,0-.05,0l0,0A1.4,1.4,0,0,1,126.14,154.52Z" style="fill:#263238"></path><path d="M150.36,151.72h-6.2L142.91,155a1.42,1.42,0,0,1-1.32.9,1.57,1.57,0,0,1-.49-.08,1.46,1.46,0,0,1-.84-1.84l5.64-15a1.42,1.42,0,0,1,1.35-.89,1.4,1.4,0,0,1,1.35.89l5.63,15a1.45,1.45,0,0,1-.84,1.84,1.42,1.42,0,0,1-.48.08,1.38,1.38,0,0,1-1.3-.9Zm-1.05-2.8-2.06-5.48-2.07,5.48Z" style="fill:#263238"></path><path d="M157.73,154.52v-15a1.39,1.39,0,0,1,1.4-1.41h3a8.93,8.93,0,0,1,0,17.85h-3A1.4,1.4,0,0,1,157.73,154.52Zm2.82-1.42h1.59a6.1,6.1,0,0,0,0-12.19h-1.59Z" style="fill:#263238"></path><path d="M174.14,154.52v-15a1.4,1.4,0,0,1,1.4-1.41,1.43,1.43,0,0,1,1.43,1.41V153.1h6.9a1.42,1.42,0,0,1,0,2.83h-8.33A1.4,1.4,0,0,1,174.14,154.52Z" style="fill:#263238"></path><path d="M188.79,139.49a1.4,1.4,0,0,1,1.41-1.41,1.42,1.42,0,0,1,1.42,1.41v15a1.42,1.42,0,0,1-1.42,1.41,1.4,1.4,0,0,1-1.41-1.41Z" style="fill:#263238"></path><path d="M199.19,154.52a1.39,1.39,0,1,1-2.77,0V139.69a1.35,1.35,0,0,1,.56-1.17,1.39,1.39,0,0,1,1.93.3l8.24,11.4v-10.5a1.39,1.39,0,0,1,1.37-1.38,1.42,1.42,0,0,1,1.41,1.38v14.8a1.42,1.42,0,0,1-1.41,1.41,1.4,1.4,0,0,1-1-.51.91.91,0,0,1-.13-.16L199.19,144Z" style="fill:#263238"></path><rect x="212.48" y="137.18" width="0.57" height="20.72" style="fill:#263238"></rect><rect x="107.63" y="155.8" width="118.67" height="0.25" style="fill:#263238"></rect><path d="M230.67,161H103.26v-28.1H230.67Zm-127.16-.25H230.42v-27.6H103.51Z" style="fill:#263238"></path><rect x="102.46" y="132.14" width="1.86" height="1.86" style="fill:#fff"></rect><path d="M104.44,134.12h-2.11V132h2.11Zm-1.86-.25h1.61v-1.61h-1.61Z" style="fill:#263238"></path><rect x="166.04" y="132.14" width="1.86" height="1.86" style="fill:#fff"></rect><path d="M168,134.12h-2.11V132H168Zm-1.86-.25h1.61v-1.61h-1.61Z" style="fill:#263238"></path><rect x="102.46" y="146.06" width="1.86" height="1.86" style="fill:#fff"></rect><path d="M104.44,148h-2.11v-2.1h2.11Zm-1.86-.25h1.61v-1.6h-1.61Z" style="fill:#263238"></path><rect x="102.46" y="159.99" width="1.86" height="1.86" style="fill:#fff"></rect><path d="M104.44,162h-2.11v-2.11h2.11Zm-1.86-.25h1.61v-1.61h-1.61Z" style="fill:#263238"></path><rect x="166.04" y="159.99" width="1.86" height="1.86" style="fill:#fff"></rect><path d="M168,162h-2.11v-2.11H168Zm-1.86-.25h1.61v-1.61h-1.61Z" style="fill:#263238"></path><rect x="229.62" y="132.14" width="1.86" height="1.86" style="fill:#fff"></rect><path d="M231.6,134.12h-2.11V132h2.11Zm-1.86-.25h1.61v-1.61h-1.61Z" style="fill:#263238"></path><rect x="229.62" y="146.06" width="1.86" height="1.86" style="fill:#fff"></rect><path d="M231.6,148h-2.11v-2.1h2.11Zm-1.86-.25h1.61v-1.6h-1.61Z" style="fill:#263238"></path><rect x="229.62" y="159.99" width="1.86" height="1.86" style="fill:#fff"></rect><path d="M231.6,162h-2.11v-2.11h2.11Zm-1.86-.25h1.61v-1.61h-1.61Z" style="fill:#263238"></path><rect x="264.07" y="140.08" width="125.52" height="85.61" transform="translate(653.67 365.77) rotate(180)" style="fill:#2667FF"></rect><polygon points="316.71 203.47 389.59 203.47 353.15 175.6 316.71 203.47" style="opacity:0.1"></polygon><polygon points="288.75 203.47 348.92 203.47 318.84 185.32 288.75 203.47" style="fill:#2667FF"></polygon><g style="opacity:0.2"><polygon points="288.75 203.47 348.92 203.47 318.84 185.32 288.75 203.47"></polygon></g><rect x="264.07" y="203.47" width="125.52" height="22.22" style="fill:#2667FF"></rect><rect x="264.07" y="203.47" width="125.52" height="22.22" style="opacity:0.2"></rect><path d="M295.89,171a6.94,6.94,0,1,1-6.94-6.94A6.94,6.94,0,0,1,295.89,171Z" style="opacity:0.1"></path><path d="M395.43,231.52H258.24V134.25H395.43Zm-136.94-.25H395.18V134.5H258.49Z" style="fill:#263238"></path><rect x="256.12" y="132.14" width="4.48" height="4.48" style="fill:#fff"></rect><path d="M260.73,136.74H256V132h4.73Zm-4.48-.25h4.23v-4.23h-4.23Z" style="fill:#263238"></path><rect x="324.59" y="132.14" width="4.48" height="4.48" style="fill:#fff"></rect><path d="M329.2,136.74h-4.73V132h4.73Zm-4.48-.25H329v-4.23h-4.23Z" style="fill:#263238"></path><rect x="393.06" y="132.14" width="4.48" height="4.48" style="fill:#fff"></rect><path d="M397.67,136.74h-4.74V132h4.74Zm-4.49-.25h4.24v-4.23h-4.24Z" style="fill:#263238"></path><rect x="256.12" y="180.65" width="4.48" height="4.48" style="fill:#fff"></rect><path d="M260.73,185.25H256v-4.73h4.73Zm-4.48-.25h4.23v-4.23h-4.23Z" style="fill:#263238"></path><rect x="393.06" y="180.65" width="4.48" height="4.48" style="fill:#fff"></rect><path d="M397.67,185.25h-4.74v-4.73h4.74Zm-4.49-.25h4.24v-4.23h-4.24Z" style="fill:#263238"></path><rect x="256.12" y="229.16" width="4.48" height="4.48" style="fill:#fff"></rect><path d="M260.73,233.76H256V229h4.73Zm-4.48-.25h4.23v-4.23h-4.23Z" style="fill:#263238"></path><rect x="324.59" y="229.16" width="4.48" height="4.48" style="fill:#fff"></rect><path d="M329.2,233.76h-4.73V229h4.73Zm-4.48-.25H329v-4.23h-4.23Z" style="fill:#263238"></path><rect x="393.06" y="229.16" width="4.48" height="4.48" style="fill:#fff"></rect><path d="M397.67,233.76h-4.74V229h4.74Zm-4.49-.25h4.24v-4.23h-4.24Z" style="fill:#263238"></path><rect x="264.07" y="243.02" width="32.94" height="32.94" transform="translate(561.09 518.98) rotate(180)" style="fill:#2667FF"></rect><path d="M269.38,250.88a3.11,3.11,0,1,0,2.44-2.44A3.11,3.11,0,0,0,269.38,250.88Z" style="opacity:0.1"></path><polygon points="273.21 267.41 297.01 267.41 285.11 254.06 273.21 267.41" style="opacity:0.1"></polygon><polygon points="264.07 267.41 283.73 267.41 273.9 258.72 264.07 267.41" style="fill:#2667FF"></polygon><g style="opacity:0.2"><polygon points="264.07 267.41 283.73 267.41 273.9 258.72 264.07 267.41"></polygon></g><rect x="264.07" y="267.41" width="32.94" height="8.55" style="fill:#2667FF"></rect><rect x="264.07" y="267.41" width="32.94" height="8.55" style="opacity:0.2"></rect><polygon points="311.86 276.08 310.24 276.08 310.24 274.46 310.49 274.46 310.49 275.83 311.86 275.83 311.86 276.08" style="fill:#263238"></polygon><path d="M339.08,276.08h-2.72v-.25h2.72Zm-5.44,0h-2.72v-.25h2.72Zm-5.45,0h-2.72v-.25h2.72Zm-5.44,0H320v-.25h2.72Zm-5.44,0h-2.72v-.25h2.72Z" style="fill:#263238"></path><polygon points="343.43 276.08 341.8 276.08 341.8 275.83 343.18 275.83 343.18 274.46 343.43 274.46 343.43 276.08" style="fill:#263238"></polygon><path d="M343.43,271.74h-.25V269h.25Zm0-5.45h-.25v-2.72h.25Zm0-5.44h-.25v-2.72h.25Zm0-5.44h-.25v-2.72h.25Zm0-5.45h-.25v-2.72h.25Z" style="fill:#263238"></path><polygon points="343.43 244.52 343.18 244.52 343.18 243.15 341.8 243.15 341.8 242.9 343.43 242.9 343.43 244.52" style="fill:#263238"></polygon><path d="M339.08,243.15h-2.72v-.25h2.72Zm-5.44,0h-2.72v-.25h2.72Zm-5.45,0h-2.72v-.25h2.72Zm-5.44,0H320v-.25h2.72Zm-5.44,0h-2.73v-.25h2.73Z" style="fill:#263238"></path><polygon points="310.49 244.52 310.24 244.52 310.24 242.9 311.86 242.9 311.86 243.15 310.49 243.15 310.49 244.52" style="fill:#263238"></polygon><path d="M310.49,271.74h-.25V269h.25Zm0-5.45h-.25v-2.72h.25Zm0-5.44h-.25v-2.72h.25Zm0-5.44h-.25v-2.72h.25Zm0-5.45h-.25v-2.72h.25Z" style="fill:#263238"></path><rect x="326.02" y="251.98" width="1.62" height="15.02" style="fill:#263238"></rect><rect x="326.02" y="251.98" width="1.62" height="15.02" transform="translate(586.32 -67.34) rotate(90)" style="fill:#263238"></rect><rect x="356.65" y="243.02" width="32.94" height="32.94" transform="translate(746.25 518.98) rotate(180)" style="fill:#2667FF"></rect><path d="M362,250.88a3.11,3.11,0,1,0,2.44-2.44A3.11,3.11,0,0,0,362,250.88Z" style="opacity:0.1"></path><polygon points="365.79 267.41 389.59 267.41 377.69 254.06 365.79 267.41" style="opacity:0.1"></polygon><polygon points="356.65 267.41 376.31 267.41 366.48 258.72 356.65 267.41" style="fill:#2667FF"></polygon><g style="opacity:0.2"><polygon points="356.65 267.41 376.31 267.41 366.48 258.72 356.65 267.41"></polygon></g><rect x="356.65" y="267.41" width="32.94" height="8.55" style="fill:#2667FF"></rect><rect x="356.65" y="267.41" width="32.94" height="8.55" style="opacity:0.2"></rect><rect x="92.89" y="99.04" width="7.29" height="1.17" style="fill:#ebebeb"></rect><rect x="92.89" y="104.29" width="7.29" height="1.17" style="fill:#ebebeb"></rect><rect x="92.89" y="101.7" width="7.29" height="1.17" style="fill:#ebebeb"></rect><rect x="184.62" y="101.7" width="43.5" height="2.6" style="fill:#ebebeb"></rect><rect x="244.28" y="101.7" width="43.5" height="2.6" style="fill:#ebebeb"></rect><rect x="303.95" y="101.7" width="43.5" height="2.6" style="fill:#2667FF"></rect><rect x="363.61" y="101.7" width="43.5" height="2.6" style="fill:#ebebeb"></rect></g><g id="freepik--Gears--inject-5"><path d="M406.66,95.82a19.44,19.44,0,1,0,19.43-19.45A19.46,19.46,0,0,0,406.66,95.82Zm4.13,0a15.31,15.31,0,1,1,15.3,15.3A15.3,15.3,0,0,1,410.79,95.82Zm-4.13,0a19.44,19.44,0,1,0,19.43-19.45A19.46,19.46,0,0,0,406.66,95.82Zm4.13,0a15.31,15.31,0,1,1,15.3,15.3A15.3,15.3,0,0,1,410.79,95.82Zm-17.47,0A32.78,32.78,0,1,0,426.09,63,32.77,32.77,0,0,0,393.32,95.82Zm11.47,0a21.31,21.31,0,1,1,21.3,21.31A21.34,21.34,0,0,1,404.79,95.82Zm1.87,0a19.44,19.44,0,1,0,19.43-19.45A19.46,19.46,0,0,0,406.66,95.82Zm4.13,0a15.31,15.31,0,1,1,15.3,15.3A15.3,15.3,0,0,1,410.79,95.82Z" style="fill:#a6a6a6"></path><polygon points="422.25 63.63 429.75 63.63 429.01 56.14 423 56.14 422.25 63.63" style="fill:#a6a6a6"></polygon><polygon points="438.86 66.02 445.36 69.77 448.45 62.91 443.25 59.9 438.86 66.02" style="fill:#a6a6a6"></polygon><polygon points="452.05 76.39 455.8 82.89 461.91 78.5 458.91 73.29 452.05 76.39" style="fill:#a6a6a6"></polygon><polygon points="458.28 91.97 458.28 99.47 465.77 98.72 465.77 92.71 458.28 91.97" style="fill:#a6a6a6"></polygon><polygon points="455.9 108.58 452.14 115.08 459 118.17 462.01 112.97 455.9 108.58" style="fill:#a6a6a6"></polygon><polygon points="445.52 121.77 439.02 125.52 443.42 131.63 448.62 128.63 445.52 121.77" style="fill:#a6a6a6"></polygon><polygon points="429.95 128 422.44 128 423.19 135.49 429.2 135.49 429.95 128" style="fill:#a6a6a6"></polygon><polygon points="413.34 125.61 406.84 121.86 403.74 128.72 408.95 131.73 413.34 125.61" style="fill:#a6a6a6"></polygon><polygon points="400.15 115.24 396.4 108.74 390.28 113.14 393.29 118.34 400.15 115.24" style="fill:#a6a6a6"></polygon><polygon points="393.91 99.67 393.91 92.16 386.42 92.91 386.42 98.92 393.91 99.67" style="fill:#a6a6a6"></polygon><polygon points="396.3 83.06 400.05 76.56 393.19 73.46 390.19 78.66 396.3 83.06" style="fill:#a6a6a6"></polygon><polygon points="406.67 69.87 413.17 66.11 408.78 60 403.57 63.01 406.67 69.87" style="fill:#a6a6a6"></polygon><path d="M347.73,67.21A19.08,19.08,0,1,0,367.3,48.64,19.07,19.07,0,0,0,347.73,67.21Zm10.17.27a8.91,8.91,0,1,1,8.67,9.14A8.91,8.91,0,0,1,357.9,67.48Z" style="fill:#455a64"></path><polygon points="363.62 49.34 370.95 49.53 370.68 44.33 364.16 44.16 363.62 49.34" style="fill:#455a64"></polygon><polygon points="377.51 52.18 382.56 57.5 386.05 53.63 381.56 48.9 377.51 52.18" style="fill:#455a64"></polygon><polygon points="385.33 64.01 385.13 71.34 390.34 71.07 390.51 64.55 385.33 64.01" style="fill:#455a64"></polygon><polygon points="382.49 77.9 377.17 82.95 381.03 86.44 385.77 81.95 382.49 77.9" style="fill:#455a64"></polygon><polygon points="370.66 85.72 363.32 85.53 363.59 90.73 370.11 90.9 370.66 85.72" style="fill:#455a64"></polygon><polygon points="356.76 82.88 351.71 77.56 348.23 81.42 352.72 86.16 356.76 82.88" style="fill:#455a64"></polygon><polygon points="348.95 71.05 349.14 63.71 343.94 63.98 343.77 70.5 348.95 71.05" style="fill:#455a64"></polygon><polygon points="351.79 57.15 357.11 52.1 353.24 48.62 348.51 53.11 351.79 57.15" style="fill:#455a64"></polygon><path d="M371.87,63l-6.25-1.86-4.74,4.5L362.41,72l6.25,1.86,4.73-4.49Zm-4.79,6.55a2.07,2.07,0,1,1,2.13-2A2.06,2.06,0,0,1,367.08,69.59Z" style="fill:#455a64"></path><path d="M38.19,215.2a19.08,19.08,0,1,0,19.57-18.57A19.09,19.09,0,0,0,38.19,215.2Zm10.16.27A8.91,8.91,0,1,1,57,224.61,8.91,8.91,0,0,1,48.35,215.47Z" style="fill:#2667FF"></path><polygon points="54.08 197.33 61.41 197.52 61.14 192.32 54.62 192.15 54.08 197.33" style="fill:#2667FF"></polygon><polygon points="67.97 200.17 73.02 205.49 76.51 201.62 72.02 196.89 67.97 200.17" style="fill:#2667FF"></polygon><polygon points="75.79 212 75.59 219.34 80.8 219.07 80.97 212.54 75.79 212" style="fill:#2667FF"></polygon><polygon points="72.95 225.9 67.63 230.94 71.49 234.43 76.23 229.94 72.95 225.9" style="fill:#2667FF"></polygon><polygon points="61.12 233.71 53.78 233.52 54.05 238.72 60.57 238.89 61.12 233.71" style="fill:#2667FF"></polygon><polygon points="47.22 230.87 42.17 225.55 38.68 229.42 43.17 234.15 47.22 230.87" style="fill:#2667FF"></polygon><polygon points="39.41 219.04 39.6 211.71 34.4 211.97 34.23 218.5 39.41 219.04" style="fill:#2667FF"></polygon><polygon points="42.24 205.15 47.57 200.1 43.7 196.61 38.97 201.1 42.24 205.15" style="fill:#2667FF"></polygon><path d="M62.33,211l-6.26-1.85-4.73,4.49L52.87,220l6.24,1.85,4.74-4.49Zm-4.79,6.56a2.07,2.07,0,1,1,2.12-2A2.07,2.07,0,0,1,57.54,217.59Z" style="fill:#2667FF"></path></g><g id="freepik--Code--inject-5"><rect x="309.11" y="295.3" width="148.14" height="93.73" style="fill:#fff"></rect><path d="M309.67,388.46h147v-92.6h-147Z" style="fill:#fff"></path><path d="M309.67,388.46l147-.15-.15.15-.1-92.6.25.25-147-.15.11-.1Zm0,0-.1-92.6v-.1h.1l147-.15h.25v.25l-.09,92.6v.16h-.16Z" style="fill:#263238"></path><rect x="309.67" y="295.86" width="147.02" height="9.93" style="fill:#263238"></rect><rect x="320.61" y="327.33" width="5.73" height="2.09" style="fill:#ebebeb"></rect><rect x="330.51" y="327.33" width="65.72" height="2.09" style="fill:#ebebeb"></rect><rect x="399.75" y="327.33" width="10.88" height="2.09" style="fill:#2667FF"></rect><rect x="413" y="327.33" width="18.81" height="2.09" style="fill:#a6a6a6"></rect><rect x="326.34" y="332.93" width="5.73" height="2.09" style="fill:#ebebeb"></rect><rect x="336.1" y="332.93" width="43.13" height="2.09" style="fill:#a6a6a6"></rect><rect x="330.51" y="349.74" width="41.2" height="2.09" style="fill:#a6a6a6"></rect><rect x="336.1" y="338.54" width="28.9" height="2.09" style="fill:#2667FF"></rect><rect x="407.03" y="344.14" width="11.02" height="2.09" style="fill:#a6a6a6"></rect><rect x="368.2" y="338.54" width="46.15" height="2.09" style="fill:#a6a6a6"></rect><rect x="330.51" y="355.34" width="55.09" height="2.09" style="fill:#2667FF"></rect><rect x="411.79" y="332.93" width="29.85" height="2.09" style="fill:#2667FF"></rect><rect x="381.93" y="332.93" width="27.49" height="2.09" style="fill:#ebebeb"></rect><rect x="416.52" y="338.54" width="18.55" height="2.09" style="fill:#ebebeb"></rect><rect x="326.34" y="338.54" width="5.73" height="2.09" style="fill:#ebebeb"></rect><rect x="320.61" y="344.14" width="5.73" height="2.09" style="fill:#a6a6a6"></rect><rect x="330.51" y="344.14" width="33.86" height="2.09" style="fill:#ebebeb"></rect><rect x="374.04" y="349.74" width="36.6" height="2.09" style="fill:#ebebeb"></rect><rect x="413" y="349.74" width="23.29" height="2.09" style="fill:#2667FF"></rect><rect x="367.81" y="344.14" width="36.55" height="2.09" style="fill:#2667FF"></rect><rect x="320.61" y="349.74" width="5.73" height="2.09" style="fill:#ebebeb"></rect><rect x="320.61" y="355.34" width="5.73" height="2.09" style="fill:#ebebeb"></rect><path d="M324.15,321.82a.51.51,0,0,1,0,.71.52.52,0,0,1-.71,0l-2.21-2.24s0,0,0-.05h0a.21.21,0,0,1,0-.07l0,0s0,0,0-.05,0,0,0,0V320s0,0,0-.05,0,0,0,0v0a0,0,0,0,1,0,0l0-.07h0s0-.06,0-.07,0,0,0,0,0,0,.05,0l2.21-2.24a.51.51,0,0,1,.71,0,.5.5,0,0,1,0,.7l-1.87,1.88Z" style="fill:#2667FF"></path><path d="M326.15,322.07l1.93-4.58a.43.43,0,1,1,.79.33l-1.93,4.59a.42.42,0,0,1-.4.26.37.37,0,0,1-.15,0A.43.43,0,0,1,326.15,322.07Z" style="fill:#2667FF"></path><path d="M332.67,320.23h0l-.06.06-2.21,2.24a.52.52,0,0,1-.35.14.54.54,0,0,1-.36-.14.51.51,0,0,1,0-.71l1.87-1.88-1.87-1.88a.5.5,0,0,1,0-.7.51.51,0,0,1,.71,0l2.21,2.24s0,0,.06,0v0s0,0,0,.07h0a.21.21,0,0,0,0,.07v.08s0,0,0,0v.12s0,.06,0,.07v0S332.69,320.19,332.67,320.23Z" style="fill:#2667FF"></path><path d="M317.39,300.74a1.81,1.81,0,1,1-1.81-1.81A1.81,1.81,0,0,1,317.39,300.74Z" style="fill:#2667FF"></path><path d="M324.76,300.74a1.81,1.81,0,1,1-1.8-1.81A1.81,1.81,0,0,1,324.76,300.74Z" style="fill:#fff"></path><path d="M332.14,300.74a1.81,1.81,0,1,1-1.81-1.81A1.81,1.81,0,0,1,332.14,300.74Z" style="fill:#455a64"></path></g><g id="freepik--speech-bubble--inject-5"><path d="M198.41,229.37a13.65,13.65,0,0,1-2.32-7.51c0-9.51,10.44-17.22,23.31-17.22s23.31,7.71,23.31,17.22-10.43,17.22-23.31,17.22a28,28,0,0,1-16.08-4.76l-8,2Z" style="fill:#fffefd"></path><path d="M198.41,229.37a13.29,13.29,0,0,1-.6-14.43,18.26,18.26,0,0,1,5.13-5.62,24.53,24.53,0,0,1,6.79-3.48,31.85,31.85,0,0,1,7.49-1.53,32.52,32.52,0,0,1,7.63.38,27.28,27.28,0,0,1,7.32,2.27,22.7,22.7,0,0,1,6.32,4.37,16,16,0,0,1,4.09,6.54,13.22,13.22,0,0,1,.07,7.73,15.94,15.94,0,0,1-4,6.6,22.36,22.36,0,0,1-6.26,4.44,30.13,30.13,0,0,1-14.92,2.74,27.68,27.68,0,0,1-14.29-4.88l.19,0-8.06,1.94-.24.05.1-.22Zm0,0-3,7-.14-.17,8-2.15.1,0,.09.06a27.41,27.41,0,0,0,14.06,4.53,30.83,30.83,0,0,0,7.43-.52,26.89,26.89,0,0,0,7.06-2.29,21.66,21.66,0,0,0,6-4.29,15.09,15.09,0,0,0,3.73-6.23,12.42,12.42,0,0,0-.1-7.17,15.26,15.26,0,0,0-3.82-6.16,21.78,21.78,0,0,0-6-4.21,26.37,26.37,0,0,0-7.07-2.24,31.12,31.12,0,0,0-14.75.95,21.13,21.13,0,0,0-11.77,8.66,13.34,13.34,0,0,0-2,7.11A13.78,13.78,0,0,0,198.41,229.37Z" style="fill:#263238"></path><path d="M212.15,226.5a1.24,1.24,0,0,1,0,1.75,1.28,1.28,0,0,1-.86.35,1.3,1.3,0,0,1-.89-.35l-5.46-5.53c-.06,0-.08-.06-.1-.12a.14.14,0,0,0-.05,0,.58.58,0,0,1-.06-.15.11.11,0,0,1-.06-.08s0-.1,0-.12,0-.08,0-.1V222s0-.06,0-.12,0-.08,0-.1v-.13s0-.06,0-.08,0-.1,0-.15,0,0,0,0a1.45,1.45,0,0,1,.1-.18,0,0,0,0,1,0,0,.26.26,0,0,1,.11-.13l5.46-5.54a1.28,1.28,0,0,1,1.75,0,1.24,1.24,0,0,1,0,1.75l-4.61,4.64Z" style="fill:#2667FF"></path><path d="M217.1,227.12l4.76-11.32a1.07,1.07,0,0,1,1.41-.56,1,1,0,0,1,.55,1.38L219.06,228a1.07,1.07,0,0,1-1,.64.91.91,0,0,1-.39-.08A1,1,0,0,1,217.1,227.12Z" style="fill:#2667FF"></path><path d="M233.22,222.56a0,0,0,0,1,0,0,.92.92,0,0,1-.14.14l-5.46,5.53a1.26,1.26,0,0,1-1.74,0,1.23,1.23,0,0,1,0-1.75l4.6-4.64-4.6-4.64a1.23,1.23,0,0,1,0-1.75,1.27,1.27,0,0,1,1.74,0l5.46,5.54a.89.89,0,0,1,.14.13s0,0,0,0,.07.12.09.18,0,0,0,0a1.2,1.2,0,0,0,.06.17s0,0,0,.06v.13s0,.08,0,.1,0,.08,0,.1v.15s0,0,0,0a1.84,1.84,0,0,0-.06.18s0,0,0,.06A.82.82,0,0,0,233.22,222.56Z" style="fill:#2667FF"></path></g><g id="freepik--Character--inject-5"><polygon points="145.73 412.85 80.16 465.72 83.85 465.72 159.59 412.85 145.73 412.85" style="fill:#c7c7c7"></polygon><polygon points="151.89 412.85 119.49 465.72 123.18 465.72 162.9 412.85 151.89 412.85" style="fill:#c7c7c7"></polygon><polygon points="167.78 412.85 200.18 465.72 196.49 465.72 156.77 412.85 167.78 412.85" style="fill:#c7c7c7"></polygon><polygon points="173.44 412.85 239.01 465.72 235.32 465.72 159.59 412.85 173.44 412.85" style="fill:#c7c7c7"></polygon><polygon points="282.88 393.45 282.88 377.98 192.83 374.29 145.27 247.29 36.29 247.29 74.85 393.45 166.97 419.31 172.75 419.31 282.88 393.45" style="fill:#455a64"></polygon><polygon points="36.29 247.29 48.76 247.29 88.93 380.52 170.44 403.61 282.88 377.98 282.88 393.45 172.75 419.31 166.97 419.31 74.85 393.45 36.29 247.29" style="opacity:0.1"></polygon><path d="M89.73,410c.59-2.34,37.27-58.75,40-60C130,349.9,149,361.49,149,361.49c.82.95,34.72-8.78,34.72-8.78l3.31,41.49-62.79,3.15s-8.11,5.58-15.57,10.19h0a92.64,92.64,0,0,1-9.83,5.68C95.75,414.24,89.12,412.37,89.73,410Z" style="fill:#f7a9a0"></path><path d="M98.83,413.22a92.64,92.64,0,0,0,9.83-5.68h0c7.45-4.61,15.57-10.2,15.57-10.2l14-.69,19.33-36.81c-4.74,1.19-8.28,2-8.54,1.65,0,0-19-11.59-19.33-11.43-2.69,1.23-39.37,57.64-40,60S95.75,414.25,98.83,413.22Z" style="fill:#fff"></path><path d="M89.36,410.14c.63-2.4,37.49-58.79,40.26-60.06,1-.48,10.29,4.36,19.4,11.41l-23.81,36.33s-23.32,14.58-26.5,15.64S88.73,412.54,89.36,410.14Z" style="fill:#2667FF"></path><path d="M92.14,410.81c6.42-9.31,31.4-47.43,37-57.11.05-.08,0-.11-.06,0-6.56,9.08-31.23,47.41-37.12,57C91.86,410.91,92,411,92.14,410.81Z" style="fill:#263238"></path><path d="M103.11,411.15A9.08,9.08,0,0,0,104.5,404a8.78,8.78,0,0,0-3.67-5.41c-.06,0-.12.07-.07.11A10.5,10.5,0,0,1,103,411.08.07.07,0,0,0,103.11,411.15Z" style="fill:#263238"></path><path d="M122.33,400.17c2.52-3.75,4-9,2.5-13.38-.06-.17-.3-.09-.32.07a62.2,62.2,0,0,1-2.69,13.07A.29.29,0,0,0,122.33,400.17Z" style="fill:#263238"></path><path d="M119.28,402.35c2.52-3.75,4.06-9,2.5-13.39-.06-.17-.3-.08-.32.07a62.29,62.29,0,0,1-2.69,13.08A.29.29,0,0,0,119.28,402.35Z" style="fill:#263238"></path><path d="M116.23,404.52c2.53-3.75,4.06-9,2.5-13.38-.06-.17-.3-.08-.32.07a62.2,62.2,0,0,1-2.69,13.07A.29.29,0,0,0,116.23,404.52Z" style="fill:#263238"></path><path d="M113.18,406.7c2.53-3.75,4.06-9,2.5-13.38-.06-.17-.3-.09-.31.07a62.86,62.86,0,0,1-2.7,13.07A.29.29,0,0,0,113.18,406.7Z" style="fill:#263238"></path><path d="M136.58,362c2.76-4.25-3.85-8.56-6.61-4.3S133.81,366.24,136.58,362Z" style="fill:#263238"></path><path d="M129.75,410.86c2.84-.88,2.87-4.31,2-6.56a23.8,23.8,0,0,0-7.43-9.77.12.12,0,0,0-.19.05.55.55,0,0,0-.75.48c.11,3.91-.27,8.11,1,11.87C125.16,409.13,127.06,411.69,129.75,410.86Zm-5-9.9c-.09-1.92-.1-3.84-.26-5.76,1.44,1.91,3,3.75,4.21,5.8a27.18,27.18,0,0,1,1.65,3.05c.71,1.64,1.44,7.42-2.92,5.11C125,407.88,124.86,403.25,124.74,401Z" style="fill:#263238"></path><path d="M129.05,384.21c-2.66,3-3.94,7-5.55,10.54a.55.55,0,0,0,.5.74.12.12,0,0,0,.15.12,23.77,23.77,0,0,0,10.64-6.12c1.69-1.74,3-4.91.72-6.82S130.61,382.48,129.05,384.21Zm3.65-.87c4.92-.44,2,4.6.7,5.84a25.64,25.64,0,0,1-2.7,2.17c-1.95,1.4-4.06,2.5-6.14,3.7.91-1.7,1.65-3.47,2.49-5.2C128,387.78,130,383.58,132.7,383.34Z" style="fill:#263238"></path><path d="M173.21,344s52.64-24.53,76.2-24.4c28,.15,50,33.28,15.81,57.49-30.23,21.39-126,20.46-126,20.46l22.12-40.32a204.36,204.36,0,0,1,61-11.73L174.1,355.58Z" style="fill:#263238"></path><path d="M174.23,352c4.13-1.08,8.35-1.81,12.55-2.6s8.48-1.49,12.73-2.16a256.45,256.45,0,0,1,25.62-2.76l2.42-.1a4.32,4.32,0,0,1,.51-.16c.41-.13.81-.26,1.22-.37.76-.21,1.53-.38,2.3-.55,1.61-.36,3.22-.65,4.81-1.07.1,0,.15.12.05.15-1.6.48-3.16,1.06-4.75,1.53l-1.39.4c3.15-.06,6.31-.05,9.46,0,.1,0,.12.16,0,.16-4.29.05-8.59.33-12.86.71s-8.47.77-12.69,1.31c-8.53,1.11-17,2.49-25.52,4-4.75.85-9.51,1.78-14.31,2.33C173.94,352.82,173.76,352.07,174.23,352Z" style="fill:#37474f"></path><path d="M149,395.61c1.35-2.56,2.47-5.27,3.7-7.9s2.45-5.27,3.68-7.91c2.46-5.26,11.35-23,12.27-24.24a.1.1,0,0,1,.17.08c-.39,1.35-5.89,13.06-7.17,15.68-2.54,5.22-5.24,10.36-7.9,15.54-.76,1.47-1.55,2.93-2.32,4.4s-1.6,2.92-2.3,4.42C149.06,395.78,148.92,395.7,149,395.61Z" style="fill:#37474f"></path><path d="M273.73,408.74c-.7-2.31-40-56.91-42.78-58-.31-.14-18.76,12.34-18.76,12.34-.78,1-35.1-7.12-35.1-7.12l-1.33,41.61,62.87.14s8.37,5.19,16,9.44h0a92.87,92.87,0,0,0,10.1,5.19C267.91,413.22,274.45,411,273.73,408.74Z" style="fill:#f7a9a0"></path><path d="M264.79,412.34a91,91,0,0,1-10.09-5.2h0c-7.66-4.24-16-9.44-16-9.44l-14,0-21.06-35.84c4.79,1,8.36,1.56,8.61,1.24,0,0,18.44-12.48,18.76-12.34,2.75,1.1,42.07,55.7,42.78,58S267.92,413.23,264.79,412.34Z" style="fill:#fff"></path><path d="M274.1,408.82c-.74-2.37-40.25-56.94-43.08-58.07-1.06-.43-10.07,4.84-18.83,12.32l25.51,35.16s24,13.44,27.22,14.35S274.84,411.19,274.1,408.82Z" style="fill:#2667FF"></path><path d="M271.35,409.62c-6.85-9-33.62-45.88-39.71-55.28,0-.07,0-.11.06,0,7,8.76,33.46,45.86,39.8,55.21C271.64,409.71,271.5,409.81,271.35,409.62Z" style="fill:#263238"></path><path d="M260.42,410.49a9.06,9.06,0,0,1-1.73-7.09,8.73,8.73,0,0,1,3.4-5.58c.06,0,.13.06.08.11a10.47,10.47,0,0,0-1.64,12.47C260.58,410.48,260.47,410.56,260.42,410.49Z" style="fill:#263238"></path><path d="M240.7,400.43c-2.71-3.62-4.49-8.8-3.14-13.25.05-.17.3-.09.32.06a63,63,0,0,0,3.31,12.93A.28.28,0,0,1,240.7,400.43Z" style="fill:#263238"></path><path d="M243.85,402.46c-2.71-3.62-4.49-8.81-3.14-13.25,0-.17.3-.09.32.06a63,63,0,0,0,3.31,12.93A.28.28,0,0,1,243.85,402.46Z" style="fill:#263238"></path><path d="M247,404.49c-2.7-3.63-4.48-8.81-3.13-13.25,0-.17.29-.1.32.05a62.25,62.25,0,0,0,3.31,12.94A.29.29,0,0,1,247,404.49Z" style="fill:#263238"></path><path d="M250.14,406.52c-2.7-3.63-4.48-8.81-3.13-13.25.05-.17.29-.1.31.05a62.82,62.82,0,0,0,3.32,12.93A.29.29,0,0,1,250.14,406.52Z" style="fill:#263238"></path><path d="M224.64,363c-3-4.11,3.43-8.72,6.4-4.6S227.61,367.09,224.64,363Z" style="fill:#263238"></path><path d="M239,407.28c1.12-3.82.54-8,.46-11.9a.56.56,0,0,0-.78-.45c0-.06-.11-.1-.18,0a23.7,23.7,0,0,0-7,10.1c-.77,2.3-.58,5.72,2.3,6.46C236.51,412.16,238.29,409.52,239,407.28ZM236,409.65c-4.25,2.52-3.79-3.29-3.16-5a26.42,26.42,0,0,1,1.5-3.13c1.15-2.11,2.58-4,3.93-6-.07,1.93,0,3.84,0,5.77C238.31,403.63,238.38,408.26,236,409.65Z" style="fill:#263238"></path><path d="M226.7,383.58c-2.19,2-.73,5.12,1,6.78a23.76,23.76,0,0,0,10.91,5.6.12.12,0,0,0,.15-.12.55.55,0,0,0,.47-.76c-1.78-3.49-3.26-7.43-6.05-10.26C231.58,383.16,228.76,381.68,226.7,383.58Zm8.79,6.77c.92,1.69,1.75,3.42,2.73,5.08-2.13-1.1-4.29-2.1-6.31-3.41a26.7,26.7,0,0,1-2.8-2c-1.35-1.17-4.51-6.07.42-5.87C232.25,384.23,234.39,388.33,235.49,390.35Z" style="fill:#263238"></path><path d="M175.49,343.15s-53.25-16-81.65-12.64C66,333.83,54.59,368.72,81.73,387.63c29.63,20.65,141.19,13.43,141.19,13.43L199.1,358.41s-38-8.94-72.64-8.59l48.69,7.81Z" style="fill:#263238"></path><path d="M200.69,361.16a.79.79,0,0,1-.05-.22c0-.06,0-.12,0-.17s-.06-.28-.1-.41a7.32,7.32,0,0,0-.27-.83q-.15-.42-.33-.81a7.15,7.15,0,0,0-.44-.76l-.07,0,0,0-.06,0a.15.15,0,0,0-.07,0c-4.18-.88-32.61-5.64-36.84-6.22s-8.54-1.09-12.82-1.55a257.25,257.25,0,0,0-25.73-1.54l-2.41,0a4.58,4.58,0,0,0-.53-.14c-.41-.11-.81-.22-1.23-.31-.77-.17-1.55-.3-2.33-.44-1.61-.29-3.24-.5-4.85-.84-.1,0-.14.13,0,.15,1.62.4,3.2.91,4.82,1.3l1.4.34c-3.15.09-6.3.26-9.45.47-.1,0-.11.16,0,.15,4.28-.15,8.59-.08,12.87.1s8.5.36,12.74.71c8.58.69,17.14,1.66,25.68,2.76,4.79.62,33.77,5.55,38.59,5.86,0,0,0,0,.06,0a2.26,2.26,0,0,0,.13.33c.12.26.25.53.38.79s.27.49.42.73.15.24.23.36l.11.17c0,.05.11.13.12.19S200.74,361.26,200.69,361.16Z" style="fill:#37474f"></path><path d="M214,398.29c-1.48-2.5-2.73-5.15-4.07-7.72s-2.7-5.15-4.06-7.72c-2.7-5.14-12.44-22.42-13.41-23.63-.06-.08-.19,0-.16.09.44,1.33,6.5,12.76,7.9,15.32,2.79,5.1,5.74,10.1,8.64,15.14.82,1.44,1.68,2.86,2.52,4.29s1.74,2.84,2.51,4.31C213.94,398.46,214.08,398.38,214,398.29Z" style="fill:#37474f"></path><path d="M161.32,227.57c-8.57,5.21-13.29,16-13.29,16s-9.38,9.8-9,16.41a11.6,11.6,0,0,0,5.33,9.36l.17-3.58s1.16,4.93,8.15,8.5,17.35,3.65,23.08,2.31a20.17,20.17,0,0,0,9.09-4.79l-3.11,4.51s7.26,1.49,13.38-5.13-3.49-20.61-3.95-23.23,2.38-20.23-16.52-21.64C174.63,226.32,167.22,224,161.32,227.57Z" style="fill:#263238"></path><path d="M141.82,268.29a12,12,0,0,1-3.59-6.2,10.83,10.83,0,0,1,.5-7.08c1.18-2.68,3.25-4.79,5.27-6.85s4.33-4.11,6.37-6.27c.11-.12-.07-.29-.19-.2a66,66,0,0,0-6,4.86,30.91,30.91,0,0,0-5,5.24,11.68,11.68,0,0,0-2.37,6.16,11.41,11.41,0,0,0,1.11,5.33,25,25,0,0,0,3.76,5.14C141.77,268.52,141.92,268.37,141.82,268.29Z" style="fill:#263238"></path><path d="M198.54,263.67c-.64-6.88-5.38-12.3-7.52-18.69-1.16-3.46-1.81-7.14-3.63-10.34,0-.09-.2,0-.16.08,1.45,2.84,1.93,5.94,2.74,9a47,47,0,0,0,3.59,8.8c2.56,5.2,5.64,11.35,3.35,17.19-1.06,2.7-3.45,5.4-6.53,5.57-.12,0-.09.21,0,.19a9.2,9.2,0,0,0,6.2-3.81A11.64,11.64,0,0,0,198.54,263.67Z" style="fill:#263238"></path><path d="M198.4,265.45a12.09,12.09,0,0,0,.07-7.29,17.12,17.12,0,0,0-4-6.1c-1.91-2.06-4-4.08-4.83-6.82,0-.12-.2-.05-.17.07,1.34,4.5,5.25,7.4,7.39,11.44,2.45,4.62,1.11,10.16-2.25,13.95a20,20,0,0,1-7.67,5.14s0,.09,0,.08C191.93,274.13,196.76,270.71,198.4,265.45Z" style="fill:#263238"></path><path d="M157.54,283.2c7,19.83,19.52,43.13,24.11,46.61,5.8,4.41,37.27,8,39,8,4.32-.06,7.55-29,2.93-29.12-7-.2-26.42.14-28.11-1.23s-13.92-13.62-26.59-27.5C160.15,270.35,153.18,270.9,157.54,283.2Z" style="fill:#eb9481"></path><path d="M219,337.8a89.2,89.2,0,0,0,12.15,3.59c3.28.55,12.74,1.89,13.7-1.65.67-2.42-4.8-3.86-8.65-5-2-.59-4.64-2.34-4.22-3.64.75-2.29,6-.68,9.47.84,6.75,2.95,16,8.6,19.44,4.94,1.32-1.38-.63-3.4-3.36-5.28,4.32,2.06,8.86,3.64,10.38,2.16a2.13,2.13,0,0,0,.14-2.93,2.85,2.85,0,0,0,3.05-.84c1.16-1.53.29-3.47-1.39-5.38a1.58,1.58,0,0,0,1.1-.92c2.29-4.55-13-15.09-17.92-15.67a122.19,122.19,0,0,0-29.31.61C218.56,313.74,219,337.79,219,337.8Z" style="fill:#eb9481"></path><path d="M238.28,322.41a23.93,23.93,0,0,1,9.84,2.54c3.85,1.95,6.55,4.44,9.87,6.88.09.06,0,.2-.1.14-1.58-1.16-8.08-5.46-9.75-6.41a23,23,0,0,0-9.86-3.1S238.25,322.4,238.28,322.41Z" style="fill:#263238"></path><path d="M240.22,316.11a58.35,58.35,0,0,1,11.4,2.53c4,1.49,7.3,4.28,10.55,7,1.95,1.61,3.87,3.26,5.74,5,.08.07,0,.21-.09.14q-5-4.17-10.16-8a30.24,30.24,0,0,0-10.72-5.15c-2.21-.57-4.47-1-6.72-1.35C240.18,316.17,240.18,316.1,240.22,316.11Z" style="fill:#263238"></path><path d="M243.59,310.41c3.69.33,6.91.6,10.32,2.16a52.51,52.51,0,0,1,10.71,7.28c1.77,1.5,3.5,3.07,5.2,4.66.07.06,0,.18-.11.12A121,121,0,0,0,257.45,315a24.18,24.18,0,0,0-6.61-3.29,42.44,42.44,0,0,0-7.26-1.27S243.57,310.41,243.59,310.41Z" style="fill:#263238"></path><path d="M223.5,306.5l-6.75,34.92s-29.74-4.91-35.66-10-19-33.26-23.5-47.13S160.32,270,168,278.16s26.57,28,27.54,28.37S223.5,306.5,223.5,306.5Z" style="fill:#2667FF"></path><path d="M210.89,327.92a2.12,2.12,0,0,1-.89.44,1.77,1.77,0,0,1-1.64-.5,2.29,2.29,0,0,0-2.55-.44,2.22,2.22,0,0,0-.95.83c-.21.32-.45.62-.64,1,.34-.2.64-.43,1-.64a2.23,2.23,0,0,1,.88-.47,1.75,1.75,0,0,1,1.65.43,2.3,2.3,0,0,0,2.52.52,2.12,2.12,0,0,0,1-.8c.21-.32.45-.62.64-1C211.51,327.48,211.21,327.71,210.89,327.92ZM181.16,313a2,2,0,0,1-.89.43,1.74,1.74,0,0,1-1.64-.5,2.29,2.29,0,0,0-2.55-.44,2.22,2.22,0,0,0-1,.83c-.21.32-.45.62-.64,1,.34-.19.64-.43,1-.64a2.17,2.17,0,0,1,.88-.47,1.75,1.75,0,0,1,1.65.43,2.32,2.32,0,0,0,2.52.53,2.26,2.26,0,0,0,1-.81c.21-.32.45-.62.64-1C181.78,312.55,181.48,312.78,181.16,313ZM158,276.47a2.09,2.09,0,0,1-.88.44,1.7,1.7,0,0,1-.87,0,5.32,5.32,0,0,0,0,.89,2.2,2.2,0,0,0,2.06-1c.22-.32.45-.62.64-1C158.59,276,158.29,276.26,158,276.47Zm48.49,34.68a2.06,2.06,0,0,1-.93-.32,1.77,1.77,0,0,1-.81-1.52,2.31,2.31,0,0,0-1.49-2.11,2.26,2.26,0,0,0-1.25-.09c-.38.08-.76.13-1.14.23.38.11.76.15,1.14.23a2.09,2.09,0,0,1,1,.29,1.75,1.75,0,0,1,.86,1.47,2.32,2.32,0,0,0,1.41,2.15,2.15,2.15,0,0,0,1.26.13c.38-.08.76-.13,1.14-.23C207.22,311.27,206.84,311.23,206.46,311.15Zm-28.38-17.62a2.18,2.18,0,0,1-.93-.32,1.75,1.75,0,0,1-.81-1.52,2.33,2.33,0,0,0-1.49-2.12,2.39,2.39,0,0,0-1.26-.08c-.37.08-.75.12-1.13.23.38.1.76.15,1.13.23a2.26,2.26,0,0,1,1,.28,1.77,1.77,0,0,1,.85,1.48,2.34,2.34,0,0,0,1.42,2.15,2.21,2.21,0,0,0,1.26.12,10.77,10.77,0,0,0,1.13-.23C178.84,293.65,178.46,293.6,178.08,293.53ZM184,332.11a2.25,2.25,0,0,0-1.25-.08l-.69.12-.45.1c.31.09.63.13.94.2a1.38,1.38,0,0,1,.2,0,2.26,2.26,0,0,1,.95.29,1.78,1.78,0,0,1,.56.53c.37.17.77.34,1.18.51A2.29,2.29,0,0,0,184,332.11Z" style="fill:#fff"></path><path d="M212.26,326.77c.83-4.12,1.69-8.24,2.37-12.39.39-2.36.79-4.72,1.15-7.08,0-.09-.14-.13-.16,0-1,4.11-2,8.22-2.8,12.37s-1.64,8.25-2.39,12.39q-.65,3.53-1.07,7.08s.07.07.08,0C210.58,335.05,211.42,330.92,212.26,326.77Z" style="fill:#263238"></path><path d="M217.42,337.94l-.67,3.48s-29.75-4.91-35.66-10-19-33.26-23.5-47.13c-3.29-10.15-.31-13.13,4.51-10.8C176,289.42,202.28,319.59,217.42,337.94Z" style="opacity:0.1"></path><path d="M117.42,342.22l69.26,1.16-3.45-22.15s5.62-4.87,2.34-14.14c-2.14-6.06-11.86-20.26-16.77-26.16-12-14.39-20.27-6.36-23.59-2.66C132.54,292.41,117.42,342.22,117.42,342.22Z" style="fill:#2667FF"></path><path d="M185.05,332.92a2.21,2.21,0,0,0-1.05-.81,2.25,2.25,0,0,0-1.25-.08c-.38.07-.76.12-1.14.22.38.11.76.15,1.14.23a2.26,2.26,0,0,1,.95.29,1.75,1.75,0,0,1,.86,1.47,2.35,2.35,0,0,0,1,1.94Zm-48.31-40.29a2.24,2.24,0,0,1-.39-.08c-.1.18-.19.37-.28.56a2.44,2.44,0,0,0,.67,0,10.77,10.77,0,0,0,1.13-.23C137.5,292.75,137.12,292.7,136.74,292.63Zm22.64,31.66a2.18,2.18,0,0,1-.93-.32,1.75,1.75,0,0,1-.81-1.52,2.33,2.33,0,0,0-1.49-2.12,2.39,2.39,0,0,0-1.26-.08c-.37.08-.75.12-1.13.23.38.1.76.15,1.13.23a2.26,2.26,0,0,1,1,.28,1.75,1.75,0,0,1,.85,1.48,2.34,2.34,0,0,0,1.42,2.15,2.21,2.21,0,0,0,1.26.12,10.77,10.77,0,0,0,1.13-.23C160.14,324.41,159.76,324.36,159.38,324.29Zm18.55-30.79a1.92,1.92,0,0,1-.78-.29,1.75,1.75,0,0,1-.81-1.52,2.14,2.14,0,0,0-.16-.79,2.23,2.23,0,0,0-.6-.87,2,2,0,0,0-.73-.46,2.39,2.39,0,0,0-1.26-.08c-.37.08-.75.12-1.13.23.38.1.76.15,1.13.23a2.26,2.26,0,0,1,1,.28,1.77,1.77,0,0,1,.85,1.48,2.34,2.34,0,0,0,1.42,2.15,2.21,2.21,0,0,0,1.26.12l.14,0C178.12,293.8,178,293.65,177.93,293.5Zm-20.57,4.71c-.07-.38-.12-.75-.22-1.13-.11.38-.15.75-.23,1.13a2.22,2.22,0,0,1-.29,1,1.73,1.73,0,0,1-1.47.86,2.34,2.34,0,0,0-2.16,1.42,2.21,2.21,0,0,0-.12,1.26c.08.37.13.75.23,1.13.11-.38.15-.76.23-1.13a2.05,2.05,0,0,1,.31-.94,1.79,1.79,0,0,1,1.52-.81,2.25,2.25,0,0,0,2.2-2.74Zm-14.7,39.21c-.08-.38-.13-.75-.23-1.13-.11.38-.15.75-.23,1.13a2,2,0,0,1-.29.95,1.73,1.73,0,0,1-1.47.86,2.34,2.34,0,0,0-2.16,1.42,2.21,2.21,0,0,0-.12,1.26c.05.22.08.44.13.66h.21c0-.22.07-.44.12-.66a2.06,2.06,0,0,1,.32-.93,1.75,1.75,0,0,1,1.52-.81,2.31,2.31,0,0,0,2.11-1.49A2.4,2.4,0,0,0,142.66,337.42ZM158,276.47a2.09,2.09,0,0,1-.88.44,1.79,1.79,0,0,1-1.65-.5,2.29,2.29,0,0,0-2.55-.44,2.33,2.33,0,0,0-.95.82c-.21.33-.44.62-.63,1,.34-.2.64-.43,1-.64a2.2,2.2,0,0,1,.87-.47,1.72,1.72,0,0,1,1.65.43,2.33,2.33,0,0,0,2.53.52,2.15,2.15,0,0,0,1-.8c.22-.32.45-.62.64-1C158.59,276,158.29,276.26,158,276.47Zm-20.69,40.77a2.16,2.16,0,0,1-.89.43,1.74,1.74,0,0,1-1.64-.5,2.29,2.29,0,0,0-2.55-.44,2.22,2.22,0,0,0-.95.83c-.21.32-.45.62-.64,1,.34-.2.64-.43,1-.64a2.3,2.3,0,0,1,.88-.47,1.75,1.75,0,0,1,1.65.43,2.33,2.33,0,0,0,2.52.53,2.2,2.2,0,0,0,1-.81c.21-.32.45-.62.64-1C137.9,316.79,137.6,317,137.28,317.24ZM181.16,313a2,2,0,0,1-.89.43,1.74,1.74,0,0,1-1.64-.5,2.29,2.29,0,0,0-2.55-.44,2.22,2.22,0,0,0-1,.83c-.21.32-.45.62-.64,1,.34-.19.64-.43,1-.64a2.17,2.17,0,0,1,.88-.47,1.75,1.75,0,0,1,1.65.43,2.32,2.32,0,0,0,2.52.53,2.26,2.26,0,0,0,1-.81c.21-.32.45-.62.64-1C181.78,312.55,181.48,312.78,181.16,313Zm-16.22,29.65a2.32,2.32,0,0,0-2.55-.44,2.28,2.28,0,0,0-.89.75h.88l.26-.08a1.86,1.86,0,0,1,1.17.11l1.65,0A1.55,1.55,0,0,1,164.94,342.65Zm2.53.07a2.17,2.17,0,0,1-.55.33h.85l0,0c.21-.32.45-.62.64-1C168.09,342.27,167.79,342.51,167.47,342.72Z" style="fill:#fff"></path><path d="M162.3,321a60.92,60.92,0,0,1,9.06-.16c1.5.11,3,.29,4.48.49.74.11,1.48.19,2.23.26a9.64,9.64,0,0,0,2.34,0,.05.05,0,1,1,0,.1,16.39,16.39,0,0,1-2.19.36,15.41,15.41,0,0,1-2.15,0c-1.53-.09-3-.25-4.57-.36-3.07-.22-6.13-.44-9.21-.44C162.17,321.29,162.16,321.05,162.3,321Z" style="fill:#263238"></path><path d="M155.45,325a67.54,67.54,0,0,1,7.29-1.69c1.23-.2,2.46-.34,3.71-.44.59-.05,1.19-.09,1.78-.12s1.32,0,2,0c.07,0,.09.1,0,.11-.61.06-1.22.22-1.83.32l-1.85.28c-1.23.19-2.45.4-3.69.58-2.46.36-4.91.75-7.37,1.2C155.35,325.22,155.33,325,155.45,325Z" style="fill:#263238"></path><path d="M153.6,275.08c0,1.31,3.69,10.89,9.4,12.14,1.85.4,4.51-9.65,4.51-9.65l.37-.69,5.11-9.76L162.9,256l-1.49-1.51s-1.22,2.76-2.71,6.21c-.07.16-.14.32-.21.5s-.18.37-.25.56c-.23.51-.46,1-.68,1.56s-.34.79-.5,1.22l-.5,1.26A72,72,0,0,0,153.6,275.08Z" style="fill:#eb9481"></path><path d="M158.7,260.72a22.11,22.11,0,0,0,9.18,16.16l5.11-9.76L162.9,256l-1.49-1.51S160.19,257.27,158.7,260.72Z" style="fill:#263238"></path><path d="M191.9,254.14c-2.17,19.21-13.92,20.08-18.06,19.6-3.76-.42-16.51-2.36-16.34-21.69s9.79-24.4,18.44-23.87S194.07,234.93,191.9,254.14Z" style="fill:#eb9481"></path><path d="M189.56,250.51c-.44-.11-.83-.29-1.26-.44a2.12,2.12,0,0,1-1.19-.71.68.68,0,0,1,.11-.83,1.71,1.71,0,0,1,1.72-.17,2.51,2.51,0,0,1,1.44,1.09A.73.73,0,0,1,189.56,250.51Z" style="fill:#263238"></path><path d="M176.43,248.11a11.73,11.73,0,0,0,1.33-.1,2.16,2.16,0,0,0,1.34-.35.68.68,0,0,0,.11-.84,1.72,1.72,0,0,0-1.61-.62,2.54,2.54,0,0,0-1.68.67A.73.73,0,0,0,176.43,248.11Z" style="fill:#263238"></path><path d="M178.83,253.81c0-.05-.11.05-.11.1-.11,1.31-.45,2.8-1.68,3.1,0,0,0,.08,0,.08C178.51,257.05,178.94,255.07,178.83,253.81Z" style="fill:#263238"></path><path d="M177.81,252.31c-2.08-.39-2.72,3.81-.78,4.17S179.56,252.64,177.81,252.31Z" style="fill:#263238"></path><path d="M177,252.41c-.41.18-.83.55-1.28.52s-.84-.52-1.11-1c0-.05-.07,0-.08,0-.13.8,0,1.68.9,1.93s1.44-.4,1.77-1.18C177.22,252.58,177.12,252.33,177,252.41Z" style="fill:#263238"></path><path d="M186.11,254.63s.09.08.08.13c-.25,1.29-.32,2.82.79,3.43,0,0,0,.09,0,.08C185.56,257.84,185.66,255.81,186.11,254.63Z" style="fill:#263238"></path><path d="M187.48,253.46c2.12.17,1.62,4.39-.34,4.23S185.71,253.31,187.48,253.46Z" style="fill:#263238"></path><path d="M188.33,253.84c.31.26.59.71,1,.78s.86-.33,1.2-.73c0,0,.07,0,.06.05-.07.81-.44,1.62-1.23,1.68s-1.16-.7-1.26-1.52C188.07,254,188.21,253.73,188.33,253.84Z" style="fill:#263238"></path><path d="M177.06,264.47c.25.36.48.84.94,1a3.38,3.38,0,0,0,1.45-.05,0,0,0,0,1,.05.08,1.79,1.79,0,0,1-1.78.38,1.39,1.39,0,0,1-.79-1.35C176.92,264.42,177,264.42,177.06,264.47Z" style="fill:#263238"></path><path d="M183.17,260.52s0,2-.13,2.9c0,.08-.24.09-.55.07h0a4.4,4.4,0,0,1-4-2.23c-.05-.09.08-.17.15-.1a6.65,6.65,0,0,0,3.83,1.69c.1-.24-.11-3.4,0-3.39a8.07,8.07,0,0,1,2,.77c.12-4.14-.42-8.26-.23-12.37a.13.13,0,0,1,.25,0,66.93,66.93,0,0,1,.81,13.31C185.31,261.68,183.52,260.72,183.17,260.52Z" style="fill:#263238"></path><path d="M182.41,263a5.34,5.34,0,0,1-2.25,1.52,2.38,2.38,0,0,1-1.47,0c-1-.34-1-1.32-.75-2.14a5.66,5.66,0,0,1,.56-1.24A7,7,0,0,0,182.41,263Z" style="fill:#263238"></path><path d="M180.16,264.55a2.38,2.38,0,0,1-1.47,0c-1-.34-1-1.32-.75-2.14A2.51,2.51,0,0,1,180.16,264.55Z" style="fill:#ff9bbc"></path><path d="M157.55,254.4a8,8,0,0,0,5.54-5.66,20.83,20.83,0,0,0,9.58-5.3c-.2.37-1.62,3.06-2.39,4.41,12.55-.15,17.94-8.79,17.94-8.79a21.2,21.2,0,0,1,3.95,8.63s1.39-7.45-1.57-13.11a12.22,12.22,0,0,0-10.23-6.89,17.43,17.43,0,0,0-17.68,2.24C153.29,237.15,157.55,254.4,157.55,254.4Z" style="fill:#263238"></path><path d="M179.87,247.45a22.8,22.8,0,0,1-6.63,1.2s0,0,0,0a19.37,19.37,0,0,0,9.86-3.83,18.69,18.69,0,0,0,3.26-3.21,12.64,12.64,0,0,0,2.43-4.35.09.09,0,0,1,.18,0,14.77,14.77,0,0,1-1.8,4.63,13.51,13.51,0,0,1-3.4,3.55,15.63,15.63,0,0,1-3.9,2Z" style="fill:#263238"></path><path d="M175.06,260.21a5.76,5.76,0,1,1,7-5.84h0a5.75,5.75,0,0,1-5.54,6A5.64,5.64,0,0,1,175.06,260.21Zm2.28-10.51a5.61,5.61,0,0,0-1.24-.11,5,5,0,1,0,1.24.11Z" style="fill:#fff"></path><path d="M188.22,261.41c-2.15-.47-3.63-3.09-3.34-6.08a6.87,6.87,0,0,1,1.6-3.89,3.58,3.58,0,0,1,6.11.59,6.81,6.81,0,0,1,.82,4.12c-.3,3.16-2.47,5.55-4.82,5.32A2.38,2.38,0,0,1,188.22,261.41Zm1.7-10.59a1.45,1.45,0,0,0-.29,0,3,3,0,0,0-2.57,1.17,6.08,6.08,0,0,0-1.41,3.45c-.27,2.74,1.08,5.12,3,5.3s3.71-1.88,4-4.62a6.14,6.14,0,0,0-.72-3.66A3.17,3.17,0,0,0,189.92,250.82Z" style="fill:#fff"></path><path d="M181.78,255l-.44-.64c.94-.64,3-1.43,4.3.2l-.61.47C183.91,253.59,181.86,255,181.78,255Z" style="fill:#fff"></path><path d="M156.1,254l-.64-.42c.19-.3,1.95-2.95,3.69-3.06s11.8,1.86,12.23,1.94l-.15.76c-2.91-.57-10.78-2-12-1.93S156.57,253.29,156.1,254Z" style="fill:#fff"></path><path d="M156.35,258.57a4,4,0,0,0,.84.4,2.8,2.8,0,0,0,.89.21,2.71,2.71,0,0,0,1.16-.14,3.38,3.38,0,0,0,.83-.41,3.67,3.67,0,0,0,.93-.92l0-5.27s-2.95-6.75-5.92-5.81S153.44,256.76,156.35,258.57Z" style="fill:#eb9481"></path><path d="M155.5,249.25c-.05,0-.07.05,0,.08,2,1.34,2.78,3.63,3.17,5.91a1.81,1.81,0,0,0-2.55-1c-.07,0,0,.13,0,.13a2,2,0,0,1,2,1.12,9.59,9.59,0,0,1,.69,2c.06.21.44.18.41-.06v-.06C159.87,254.53,158.47,250.14,155.5,249.25Z" style="fill:#263238"></path><path d="M143.14,279.51c-11.44,10-40.77,49.5-33.57,57.95s52.47,2.59,65.49-2.08c3.87-1.39-7.86-25.84-12.15-26.81-3.57-.82-22.91,5.79-23.34,4.67s3.34-9.84,9.4-25.46C156,269.78,148.2,275.08,143.14,279.51Z" style="fill:#eb9481"></path><path d="M182,303c9.11-.35,11.5,1,19-3.42,4.94-2.87,8.9-.95,5.74,4.09-5.17,8.23-16.83,11.15-21.16,11Z" style="fill:#eb9481"></path><path d="M157.29,309.22s10.65-4.59,20.32-5.92c6.69-.92,21.46-1.31,34,14.48,3,3.75,4.54,11.19-2.53,6.83-5-3.09-7.27-6.57-10.52-7.84,0,0,.88,9.7-3,12.53A89.7,89.7,0,0,1,184.91,336a19.92,19.92,0,0,1-1.43-1.88s-3.86,2.3-10.57,1Z" style="fill:#eb9481"></path><path d="M184.13,303.44c3,1.94,9.16,6.16,13,11.37,4.3,5.79,11,18.11,6.72,21.24-3.16,2.3-6.14-2.18-6.14-2.18s1.7,5.67-1.6,7.12c-3,1.32-5.12-2.28-5.12-2.28s.45,3.62-2.7,4.34c-3.79.86-4.09-6.87-8.68-9.32C178.61,333.18,184.13,303.44,184.13,303.44Z" style="fill:#eb9481"></path><path d="M190.28,318.33a28.69,28.69,0,0,1,7.52,15.4c0,.15-.09.24-.13.11a70.44,70.44,0,0,0-7.44-15.46S190.26,318.31,190.28,318.33Z" style="fill:#263238"></path><path d="M184.56,322.85c1.94,2.18,6.08,9.21,6.59,15.81,0,.15-.1.24-.14.1a76.45,76.45,0,0,0-6.5-15.88S184.54,322.82,184.56,322.85Z" style="fill:#263238"></path><path d="M198.54,316.71c2.84,1.16,4.6,2.78,6.9,4.75a40.84,40.84,0,0,0,3.53,2.76c1.13.77,2.79,1.92,4.16,1a2.44,2.44,0,0,0,.78-2.34,11.65,11.65,0,0,0-1.28-3.49s.05-.08.08,0a17.23,17.23,0,0,1,1.46,3.14,3.87,3.87,0,0,1,0,2.31c-.59,1.57-2.51,1.59-3.82,1a12.59,12.59,0,0,1-2.19-1.34c-.67-.48-1.31-1-1.95-1.52-1.29-1.08-2.53-2.23-3.81-3.33a37.92,37.92,0,0,0-3.94-2.85A.06.06,0,0,1,198.54,316.71Z" style="fill:#263238"></path><path d="M203.64,327.63a91.29,91.29,0,0,0-5.17-10.85,0,0,0,0,1,.07-.06,48.48,48.48,0,0,1,5.82,10.43,15.91,15.91,0,0,1,1.2,6.36c-.3,3.06-2.39,3.43-3.16,3.51a4,4,0,0,1-2.56-.69,8.1,8.1,0,0,1-2.13-2.45c0-.05,0-.1.06-.06.94,1.31,2.58,2.68,4.27,2.63a2.79,2.79,0,0,0,2-.83,3.65,3.65,0,0,0,.74-2.42A16.91,16.91,0,0,0,203.64,327.63Z" style="fill:#263238"></path><path d="M157.29,309.22l11.17,31.21s-56.63,6.88-60.44-3.24,21.48-45.69,32.28-55.7c12.5-11.61,13.5-7.13,9.9,3.9-3.78,11.56-10.5,28.14-10.5,28.14Z" style="fill:#2667FF"></path><path d="M136.74,292.63a2.18,2.18,0,0,1-.93-.32,1.77,1.77,0,0,1-.81-1.52,2.32,2.32,0,0,0-1.38-2.07l-.48.57.07,0a1.77,1.77,0,0,1,.86,1.48,2.32,2.32,0,0,0,1.41,2.15,2.21,2.21,0,0,0,1.26.12,10.77,10.77,0,0,0,1.13-.23C137.5,292.75,137.12,292.7,136.74,292.63Zm22.64,31.66a2.18,2.18,0,0,1-.93-.32,1.75,1.75,0,0,1-.81-1.52,2.33,2.33,0,0,0-1.49-2.12,2.39,2.39,0,0,0-1.26-.08c-.37.08-.75.12-1.13.23.38.1.76.15,1.13.23a2.26,2.26,0,0,1,1,.28,1.75,1.75,0,0,1,.85,1.48,2.34,2.34,0,0,0,1.42,2.15,2.21,2.21,0,0,0,1.26.12,10.77,10.77,0,0,0,1.13-.23C160.14,324.41,159.76,324.36,159.38,324.29ZM118.76,331a2.06,2.06,0,0,1-.93-.32,1.75,1.75,0,0,1-.81-1.52,2.28,2.28,0,0,0-2.75-2.2c-.38.08-.75.12-1.13.23.38.11.75.15,1.13.23a2,2,0,0,1,1,.29,1.73,1.73,0,0,1,.86,1.47,2.33,2.33,0,0,0,1.42,2.15,2.13,2.13,0,0,0,1.26.12c.38-.07.75-.12,1.13-.22A11.32,11.32,0,0,0,118.76,331Zm23.9,6.45c-.08-.38-.13-.75-.23-1.13-.11.38-.15.75-.23,1.13a2,2,0,0,1-.29.95,1.73,1.73,0,0,1-1.47.86,2.34,2.34,0,0,0-2.16,1.42,2.21,2.21,0,0,0-.12,1.26c.05.24.09.48.14.73h.19c0-.24.08-.48.13-.72a2.06,2.06,0,0,1,.32-.93,1.75,1.75,0,0,1,1.52-.81,2.31,2.31,0,0,0,2.11-1.49A2.4,2.4,0,0,0,142.66,337.42ZM152,276.71l-.06.08c-.21.33-.44.62-.63,1,.25-.15.48-.31.71-.47C152,277.09,152,276.89,152,276.71Zm-14.72,40.53a2.16,2.16,0,0,1-.89.43,1.74,1.74,0,0,1-1.64-.5,2.29,2.29,0,0,0-2.55-.44,2.22,2.22,0,0,0-.95.83c-.21.32-.45.62-.64,1,.34-.2.64-.43,1-.64a2.3,2.3,0,0,1,.88-.47,1.75,1.75,0,0,1,1.65.43,2.33,2.33,0,0,0,2.52.53,2.2,2.2,0,0,0,1-.81c.21-.32.45-.62.64-1C137.9,316.79,137.6,317,137.28,317.24Z" style="fill:#fff"></path><path d="M122.08,319.77a66.12,66.12,0,0,1,8.55-3.93,62.86,62.86,0,0,1,8.93-2.58c1.73-.39,3.48-.69,5.22-1a0,0,0,1,1,0,.08,80.18,80.18,0,0,0-9,2.51q-4.42,1.45-8.77,3.07c-1.65.62-3.26,1.3-4.88,2A.07.07,0,0,1,122.08,319.77Z" style="fill:#263238"></path><path d="M157.15,309.12c-.29.05-15.93,3.53-16.45,3.71.08-.22,3.61-8,4.13-9.14.06-.11.1-.23.15-.34.33-.5.66-1,1-1.51s.79-1.31,1.18-2c0,0,0,0,0,0l-1.26,1.91c-.19.3-.38.6-.56.91.35-.81.69-1.62,1-2.43.54-1.3,1-2.61,1.54-3.92,0-.05,0-.07-.07,0-1,2.27-2.15,4.5-3.19,6.77s-5,10.59-5,10.59,17.27-4.21,17.61-4.32A.11.11,0,0,0,157.15,309.12Z" style="fill:#263238"></path><path d="M156.22,328.65c-1.22-3.48-2.42-7-3.78-10.4-.77-2-1.52-3.91-2.31-5.86,0-.07-.16,0-.14.05,1.09,3.54,2.19,7.09,3.45,10.58s2.46,7,3.75,10.42q1.11,2.94,2.38,5.82s.09,0,.07,0C158.67,335.65,157.45,332.16,156.22,328.65Z" style="fill:#263238"></path><path d="M169.12,341c-.46-1-1-2.36-1.53-3.31-.13-.25-.32-.22-.22,0,.34.87.6,1.84.93,2.74-.8.07-1.59.13-2.38.22l-2.75.29c-1.8.19-3.59.36-5.39.51q-5.47.45-10.95.67a209.49,209.49,0,0,1-22-.14c-2-.13-4.09-.3-6.12-.53s-4.31-.51-6-.89c0,0-.07.07,0,.09a34,34,0,0,0,5.17,1.21c1.84.27,3.69.5,5.54.66,3.68.33,7.38.46,11.08.49q11,.09,22-.74,3.08-.22,6.14-.53c1-.11,2.07-.21,3.1-.33S169.2,341.13,169.12,341Z" style="fill:#263238"></path><rect x="170.78" y="345.6" width="71.29" height="3.19" style="fill:#c7c7c7"></rect><polygon points="242.07 345.6 242.07 348.79 193.61 348.79 196.06 345.6 242.07 345.6" style="fill:#a6a6a6"></polygon><polygon points="203.41 348.79 265.81 348.79 274.83 304.77 212.44 304.77 203.41 348.79" style="fill:#a6a6a6"></polygon><polygon points="206.33 348.79 268.72 348.79 277.75 304.77 215.36 304.77 206.33 348.79" style="fill:#c7c7c7"></polygon><path d="M247.66,325.14a4.38,4.38,0,0,1-3.1,4.44c-1.79.37-3.28-1-3.35-3.09a4.4,4.4,0,0,1,3.11-4.44C246.1,321.68,247.6,323.06,247.66,325.14Z" style="fill:#fff"></path></g></svg>